<svg xmlns="http://www.w3.org/2000/svg" viewBox="0 0 160 380" width="100%" height="100%">
  <defs>
    <linearGradient id="aiUltraGrad" x1="0%" y1="0%" x2="100%" y2="100%">
      <stop offset="0%" stop-color="#6b21a8"/>
      <stop offset="50%" stop-color="#4c1d95"/>
      <stop offset="85%" stop-color="#2e1065"/>
      <stop offset="100%" stop-color="#0f172a"/>
    </linearGradient>
    <filter id="aiShadow" x="-20%" y="-20%" width="140%" height="140%">
      <feDropShadow dx="0" dy="3" stdDeviation="4" flood-color="#000000" flood-opacity="0.5"/>
    </filter>
  </defs>

  <rect width="160" height="380" rx="10" fill="url(#aiUltraGrad)" stroke="#a855f7" stroke-width="1.8"/>
  <circle cx="140" cy="35" r="55" fill="#a855f7" opacity="0.15"/>
  <circle cx="20" cy="345" r="45" fill="#c084fc" opacity="0.08"/>

  <!-- Top Badge -->
  <rect x="10" y="14" width="140" height="20" rx="4" fill="rgba(168, 85, 247, 0.35)"/>
  <text x="80" y="28" font-family="'Inter', -apple-system, sans-serif" font-size="8.5" font-weight="900" fill="#d8b4fe" text-anchor="middle" letter-spacing="0.5">AI SMART SUITE</text>

  <!-- Central Icon Box -->
  <g transform="translate(52, 46)">
    <rect width="56" height="56" rx="14" fill="rgba(168, 85, 247, 0.25)" stroke="rgba(255, 255, 255, 0.3)" stroke-width="1.5" filter="url(#aiShadow)"/>
    <!-- Sparkles Icon -->
    <path d="M28 12 L30 22 L40 25 L30 28 L28 38 L26 28 L16 25 L26 22 Z" fill="#ffffff"/>
    <circle cx="17" cy="15" r="2.5" fill="#e9d5ff"/>
    <circle cx="39" cy="35" r="2.2" fill="#e9d5ff"/>
  </g>

  <!-- Title & Subtitle -->
  <text x="80" y="122" font-family="'Inter', -apple-system, sans-serif" font-size="13" font-weight="900" fill="#ffffff" text-anchor="middle" filter="url(#aiShadow)">AI Photo Studio</text>
  <text x="80" y="138" font-family="'Inter', -apple-system, sans-serif" font-size="9" font-weight="700" fill="#d8b4fe" text-anchor="middle">Auto Background &amp; Crop</text>

  <!-- Features Box -->
  <rect x="10" y="152" width="140" height="170" rx="8" fill="rgba(0, 0, 0, 0.3)" stroke="rgba(255, 255, 255, 0.12)" stroke-width="1"/>
  
  <g transform="translate(18, 174)">
    <circle cx="4" cy="0" r="3" fill="#c084fc"/>
    <text x="14" y="3.5" font-family="'Inter', -apple-system, sans-serif" font-size="9" font-weight="700" fill="#ffffff">1-Click BG Remover</text>
  </g>
  <g transform="translate(18, 198)">
    <circle cx="4" cy="0" r="3" fill="#c084fc"/>
    <text x="14" y="3.5" font-family="'Inter', -apple-system, sans-serif" font-size="9" font-weight="700" fill="#ffffff">Face Alignment &amp; Center</text>
  </g>
  <g transform="translate(18, 222)">
    <circle cx="4" cy="0" r="3" fill="#c084fc"/>
    <text x="14" y="3.5" font-family="'Inter', -apple-system, sans-serif" font-size="9" font-weight="700" fill="#ffffff">4K Ultra HD AI Upscaling</text>
  </g>
  <g transform="translate(18, 246)">
    <circle cx="4" cy="0" r="3" fill="#c084fc"/>
    <text x="14" y="3.5" font-family="'Inter', -apple-system, sans-serif" font-size="9" font-weight="700" fill="#ffffff">Batch 1,000+ Photos/Min</text>
  </g>
  <g transform="translate(18, 270)">
    <circle cx="4" cy="0" r="3" fill="#c084fc"/>
    <text x="14" y="3.5" font-family="'Inter', -apple-system, sans-serif" font-size="9" font-weight="700" fill="#ffffff">Auto Blur Correction</text>
  </g>
  <g transform="translate(18, 294)">
    <circle cx="4" cy="0" r="3" fill="#c084fc"/>
    <text x="14" y="3.5" font-family="'Inter', -apple-system, sans-serif" font-size="9" font-weight="700" fill="#ffffff">Zero-Manual Crop</text>
  </g>

  <!-- CTA Button -->
  <g transform="translate(10, 334)">
    <rect width="140" height="32" rx="7" fill="#9333ea" filter="url(#aiShadow)"/>
    <text x="62" y="21" font-family="'Inter', -apple-system, sans-serif" font-size="10.5" font-weight="900" fill="#ffffff" text-anchor="middle">Try AI Suite</text>
    <path d="M118 13 L125 16.5 L118 20" fill="none" stroke="#ffffff" stroke-width="2.2" stroke-linecap="round" stroke-linejoin="round"/>
  </g>
</svg>
